<?xml version="1.0" encoding="utf-8" standalone="no"?>
<!DOCTYPE svg PUBLIC "-//W3C//DTD SVG 1.1//EN"
  "http://www.w3.org/Graphics/SVG/1.1/DTD/svg11.dtd">
<svg xmlns:xlink="http://www.w3.org/1999/xlink" width="779.715pt" height="234.16pt" viewBox="0 0 779.715 234.16" xmlns="http://www.w3.org/2000/svg" version="1.1">
 <metadata>
  <rdf:RDF xmlns:dc="http://purl.org/dc/elements/1.1/" xmlns:cc="http://creativecommons.org/ns#" xmlns:rdf="http://www.w3.org/1999/02/22-rdf-syntax-ns#">
   <cc:Work>
    <dc:type rdf:resource="http://purl.org/dc/dcmitype/StillImage"/>
    <dc:date>2026-09-29T19:52:54.935697</dc:date>
    <dc:format>image/svg+xml</dc:format>
    <dc:creator>
     <cc:Agent>
      <dc:title>Matplotlib v3.11.1, https://matplotlib.org/</dc:title>
     </cc:Agent>
    </dc:creator>
   </cc:Work>
  </rdf:RDF>
 </metadata>
 <defs>
  <style type="text/css">*{stroke-linejoin: round; stroke-linecap: butt}</style>
 </defs>
 <g id="figure_1">
  <g id="patch_1">
   <path d="M 0 234.16 
L 779.715 234.16 
L 779.715 0 
L 0 0 
L 0 234.16 
z
" style="fill: none"/>
  </g>
  <g id="axes_1">
   <g id="patch_2">
    <path d="M 576.928909 155.618455 
C 579.603165 155.82803 582.311291 155.499489 584.703364 154.675284 
C 587.095437 153.85108 589.063792 152.568308 590.354095 150.992718 
" clip-path="url(#p8c715bc26d)" style="fill: none; stroke: #b26b00; stroke-width: 2; stroke-linejoin: miter"/>
   </g>
   <g id="patch_3">
    <path d="M 593.744949 142.290923 
L 592.992968 151.65706 
L 590.493994 150.683277 
L 590.370866 150.999253 
L 590.337323 150.986182 
L 590.46045 150.670206 
L 587.961476 149.696424 
z
" clip-path="url(#p8c715bc26d)" style="fill: #b26b00; stroke: #b26b00; stroke-linejoin: miter"/>
   </g>
   <g id="patch_4">
    <path d="M 677.728909 155.618455 
C 680.403165 155.82803 683.111291 155.499489 685.503364 154.675284 
C 687.895437 153.85108 689.863792 152.568308 691.154095 150.992718 
" clip-path="url(#p8c715bc26d)" style="fill: none; stroke: #b26b00; stroke-width: 2; stroke-linejoin: miter"/>
   </g>
   <g id="patch_5">
    <path d="M 694.544949 142.290923 
L 693.792968 151.65706 
L 691.293994 150.683277 
L 691.170866 150.999253 
L 691.137323 150.986182 
L 691.26045 150.670206 
L 688.761476 149.696424 
z
" clip-path="url(#p8c715bc26d)" style="fill: #b26b00; stroke: #b26b00; stroke-linejoin: miter"/>
   </g>
   <g id="patch_6">
    <path d="M 31.305 101.68 
C 36.078656 101.68 40.657438 99.783406 44.032922 96.407922 
C 47.408406 93.032438 49.305 88.453656 49.305 83.68 
C 49.305 78.906344 47.408406 74.327562 44.032922 70.952078 
C 40.657438 67.576594 36.078656 65.68 31.305 65.68 
C 26.531344 65.68 21.952562 67.576594 18.577078 70.952078 
C 15.201594 74.327562 13.305 78.906344 13.305 83.68 
C 13.305 88.453656 15.201594 93.032438 18.577078 96.407922 
C 21.952562 99.783406 26.531344 101.68 31.305 101.68 
L 31.305 101.68 
z
" clip-path="url(#p8c715bc26d)" style="fill: none; stroke: #002060; stroke-width: 2; stroke-linejoin: miter"/>
   </g>
   <g id="line2d_1">
    <path d="M 121.305 213.28 
L 121.305 195.055 
M 121.305 188.305 
L 121.305 170.08 
" clip-path="url(#p8c715bc26d)" style="fill: none; stroke: #1f6f6b; stroke-width: 2; stroke-linecap: round"/>
   </g>
   <g id="line2d_2">
    <path d="M 107.805 195.055 
L 134.805 195.055 
" clip-path="url(#p8c715bc26d)" style="fill: none; stroke: #1f6f6b; stroke-width: 2; stroke-linecap: round"/>
   </g>
   <g id="line2d_3">
    <path d="M 114.555 188.305 
L 128.055 188.305 
" clip-path="url(#p8c715bc26d)" style="fill: none; stroke: #1f6f6b; stroke-width: 2; stroke-linecap: round"/>
   </g>
   <g id="line2d_4">
    <path d="M 121.305 170.08 
L 121.305 151.855 
M 121.305 145.105 
L 121.305 126.88 
" clip-path="url(#p8c715bc26d)" style="fill: none; stroke: #1f6f6b; stroke-width: 2; stroke-linecap: round"/>
   </g>
   <g id="line2d_5">
    <path d="M 107.805 151.855 
L 134.805 151.855 
" clip-path="url(#p8c715bc26d)" style="fill: none; stroke: #1f6f6b; stroke-width: 2; stroke-linecap: round"/>
   </g>
   <g id="line2d_6">
    <path d="M 114.555 145.105 
L 128.055 145.105 
" clip-path="url(#p8c715bc26d)" style="fill: none; stroke: #1f6f6b; stroke-width: 2; stroke-linecap: round"/>
   </g>
   <g id="line2d_7">
    <path d="M 121.305 126.88 
L 121.305 108.655 
M 121.305 101.905 
L 121.305 83.68 
" clip-path="url(#p8c715bc26d)" style="fill: none; stroke: #1f6f6b; stroke-width: 2; stroke-linecap: round"/>
   </g>
   <g id="line2d_8">
    <path d="M 107.805 108.655 
L 134.805 108.655 
" clip-path="url(#p8c715bc26d)" style="fill: none; stroke: #1f6f6b; stroke-width: 2; stroke-linecap: round"/>
   </g>
   <g id="line2d_9">
    <path d="M 114.555 101.905 
L 128.055 101.905 
" clip-path="url(#p8c715bc26d)" style="fill: none; stroke: #1f6f6b; stroke-width: 2; stroke-linecap: round"/>
   </g>
   <g id="line2d_10">
    <path d="M 121.305 83.68 
L 121.305 65.455 
M 121.305 58.705 
L 121.305 40.48 
" clip-path="url(#p8c715bc26d)" style="fill: none; stroke: #1f6f6b; stroke-width: 2; stroke-linecap: round"/>
   </g>
   <g id="line2d_11">
    <path d="M 107.805 65.455 
L 134.805 65.455 
" clip-path="url(#p8c715bc26d)" style="fill: none; stroke: #1f6f6b; stroke-width: 2; stroke-linecap: round"/>
   </g>
   <g id="line2d_12">
    <path d="M 114.555 58.705 
L 128.055 58.705 
" clip-path="url(#p8c715bc26d)" style="fill: none; stroke: #1f6f6b; stroke-width: 2; stroke-linecap: round"/>
   </g>
   <g id="line2d_13">
    <path d="M 121.305 213.28 
L 164.505 213.28 
L 207.705 213.28 
" clip-path="url(#p8c715bc26d)" style="fill: none; stroke: #1f6f6b; stroke-width: 2; stroke-linecap: round"/>
   </g>
   <g id="line2d_14">
    <path d="M 121.305 170.08 
L 164.505 170.08 
L 207.705 170.08 
" clip-path="url(#p8c715bc26d)" style="fill: none; stroke: #1f6f6b; stroke-width: 2; stroke-linecap: round"/>
   </g>
   <g id="line2d_15">
    <path d="M 121.305 126.88 
L 164.505 126.88 
L 207.705 126.88 
" clip-path="url(#p8c715bc26d)" style="fill: none; stroke: #1f6f6b; stroke-width: 2; stroke-linecap: round"/>
   </g>
   <g id="line2d_16">
    <path d="M 121.305 83.68 
L 164.505 83.68 
L 207.705 83.68 
" clip-path="url(#p8c715bc26d)" style="fill: none; stroke: #1f6f6b; stroke-width: 2; stroke-linecap: round"/>
   </g>
   <g id="line2d_17">
    <path d="M 121.305 40.48 
L 164.505 40.48 
L 207.705 40.48 
" clip-path="url(#p8c715bc26d)" style="fill: none; stroke: #1f6f6b; stroke-width: 2; stroke-linecap: round"/>
   </g>
   <g id="line2d_18">
    <path d="M 207.705 229.48 
L 261.705 229.48 
L 315.705 229.48 
" clip-path="url(#p8c715bc26d)" style="fill: none; stroke: #b26b00; stroke-width: 2; stroke-linecap: round"/>
   </g>
   <g id="line2d_19">
    <path d="M 315.705 229.48 
L 315.705 126.88 
L 315.705 24.28 
" clip-path="url(#p8c715bc26d)" style="fill: none; stroke: #b26b00; stroke-width: 2; stroke-linecap: round"/>
   </g>
   <g id="line2d_20">
    <path d="M 315.705 24.28 
L 261.705 24.28 
L 207.705 24.28 
" clip-path="url(#p8c715bc26d)" style="fill: none; stroke: #b26b00; stroke-width: 2; stroke-linecap: round"/>
   </g>
   <g id="line2d_21">
    <path d="M 207.705 24.28 
L 207.705 126.88 
L 207.705 229.48 
" clip-path="url(#p8c715bc26d)" style="fill: none; stroke: #b26b00; stroke-width: 2; stroke-linecap: round"/>
   </g>
   <g id="line2d_22">
    <path d="M 315.705 40.48 
L 495.705 40.48 
L 675.705 40.48 
" clip-path="url(#p8c715bc26d)" style="fill: none; stroke: #1f6f6b; stroke-width: 2; stroke-linecap: round"/>
   </g>
   <g id="line2d_23">
    <path d="M 384.105 40.48 
L 393.105 40.48 
L 393.105 31.48 
L 429.105 31.48 
L 429.105 49.48 
L 393.105 49.48 
L 393.105 40.48 
M 429.105 40.48 
L 438.105 40.48 
" clip-path="url(#p8c715bc26d)" style="fill: none; stroke: #a3231f; stroke-width: 2; stroke-linecap: round"/>
   </g>
   <g id="line2d_24">
    <path d="M 393.105 40.48 
L 429.105 40.48 
" clip-path="url(#p8c715bc26d)" style="fill: none; stroke: #a3231f; stroke-width: 2; stroke-linecap: round"/>
   </g>
   <g id="line2d_25">
    <path d="M 358.905 40.48 
L 371.505 40.48 
L 384.105 40.48 
" clip-path="url(#p8c715bc26d)" style="fill: none; stroke: #1f6f6b; stroke-width: 2; stroke-linecap: round"/>
   </g>
   <g id="line2d_26">
    <path d="M 438.105 40.48 
L 448.905 40.48 
L 459.705 40.48 
" clip-path="url(#p8c715bc26d)" style="fill: none; stroke: #1f6f6b; stroke-width: 2; stroke-linecap: round"/>
   </g>
   <g id="line2d_27">
    <path d="M 459.705 40.48 
L 470.505 40.48 
L 473.505 31.48 
L 479.505 49.48 
L 485.505 31.48 
L 491.505 49.48 
L 497.505 31.48 
L 503.505 49.48 
L 506.505 40.48 
L 517.305 40.48 
" clip-path="url(#p8c715bc26d)" style="fill: none; stroke: #002060; stroke-width: 2; stroke-linecap: round"/>
   </g>
   <g id="line2d_28">
    <path d="M 517.305 40.48 
L 596.505 40.48 
L 675.705 40.48 
" clip-path="url(#p8c715bc26d)" style="fill: none; stroke: #1f6f6b; stroke-width: 2; stroke-linecap: round"/>
   </g>
   <g id="line2d_29">
    <path d="M 315.705 213.28 
L 495.705 213.28 
L 675.705 213.28 
" clip-path="url(#p8c715bc26d)" style="fill: none; stroke: #1f6f6b; stroke-width: 2; stroke-linecap: round"/>
   </g>
   <g id="line2d_30">
    <path d="M 358.905 40.48 
L 358.905 69.28 
L 358.905 98.08 
" clip-path="url(#p8c715bc26d)" style="fill: none; stroke: #2e6b3e; stroke-width: 2; stroke-linecap: round"/>
   </g>
   <g id="line2d_31">
    <path d="M 327.225 148.48 
L 358.905 148.48 
L 390.585 148.48 
" clip-path="url(#p8c715bc26d)" style="fill: none; stroke: #2e6b3e; stroke-width: 2; stroke-linecap: round"/>
   </g>
   <g id="line2d_32">
    <path d="M 390.585 148.48 
L 390.585 123.28 
L 390.585 98.08 
" clip-path="url(#p8c715bc26d)" style="fill: none; stroke: #2e6b3e; stroke-width: 2; stroke-linecap: round"/>
   </g>
   <g id="line2d_33">
    <path d="M 390.585 98.08 
L 358.905 98.08 
L 327.225 98.08 
" clip-path="url(#p8c715bc26d)" style="fill: none; stroke: #2e6b3e; stroke-width: 2; stroke-linecap: round"/>
   </g>
   <g id="line2d_34">
    <path d="M 327.225 98.08 
L 327.225 123.28 
L 327.225 148.48 
" clip-path="url(#p8c715bc26d)" style="fill: none; stroke: #2e6b3e; stroke-width: 2; stroke-linecap: round"/>
   </g>
   <g id="line2d_35">
    <path d="M 358.905 148.48 
L 358.905 180.88 
L 358.905 213.28 
" clip-path="url(#p8c715bc26d)" style="fill: none; stroke: #2e6b3e; stroke-width: 2; stroke-linecap: round"/>
   </g>
   <g id="line2d_36">
    <path d="M 459.705 40.48 
L 459.705 65.68 
L 459.705 90.88 
" clip-path="url(#p8c715bc26d)" style="fill: none; stroke-dasharray: 7.4,3.2; stroke-dashoffset: 0; stroke: #002060; stroke-width: 2"/>
   </g>
   <g id="line2d_37">
    <path d="M 517.305 40.48 
L 517.305 65.68 
L 517.305 90.88 
" clip-path="url(#p8c715bc26d)" style="fill: none; stroke-dasharray: 7.4,3.2; stroke-dashoffset: 0; stroke: #002060; stroke-width: 2"/>
   </g>
   <g id="line2d_38">
    <path d="M 454.305 119.68 
L 488.505 119.68 
L 522.705 119.68 
" clip-path="url(#p8c715bc26d)" style="fill: none; stroke: #002060; stroke-width: 2; stroke-linecap: round"/>
   </g>
   <g id="line2d_39">
    <path d="M 522.705 119.68 
L 522.705 105.28 
L 522.705 90.88 
" clip-path="url(#p8c715bc26d)" style="fill: none; stroke: #002060; stroke-width: 2; stroke-linecap: round"/>
   </g>
   <g id="line2d_40">
    <path d="M 522.705 90.88 
L 488.505 90.88 
L 454.305 90.88 
" clip-path="url(#p8c715bc26d)" style="fill: none; stroke: #002060; stroke-width: 2; stroke-linecap: round"/>
   </g>
   <g id="line2d_41">
    <path d="M 454.305 90.88 
L 454.305 105.28 
L 454.305 119.68 
" clip-path="url(#p8c715bc26d)" style="fill: none; stroke: #002060; stroke-width: 2; stroke-linecap: round"/>
   </g>
   <g id="line2d_42">
    <path d="M 574.905 40.48 
L 574.905 52.18 
L 574.905 63.88 
" clip-path="url(#p8c715bc26d)" style="fill: none; stroke: #1f6f6b; stroke-width: 2; stroke-linecap: round"/>
   </g>
   <g id="line2d_43">
    <path d="M 536.025 103.48 
L 574.905 103.48 
L 613.785 103.48 
" clip-path="url(#p8c715bc26d)" style="fill: none; stroke: #55575b; stroke-width: 2; stroke-linecap: round"/>
   </g>
   <g id="line2d_44">
    <path d="M 613.785 103.48 
L 613.785 83.68 
L 613.785 63.88 
" clip-path="url(#p8c715bc26d)" style="fill: none; stroke: #55575b; stroke-width: 2; stroke-linecap: round"/>
   </g>
   <g id="line2d_45">
    <path d="M 613.785 63.88 
L 574.905 63.88 
L 536.025 63.88 
" clip-path="url(#p8c715bc26d)" style="fill: none; stroke: #55575b; stroke-width: 2; stroke-linecap: round"/>
   </g>
   <g id="line2d_46">
    <path d="M 536.025 63.88 
L 536.025 83.68 
L 536.025 103.48 
" clip-path="url(#p8c715bc26d)" style="fill: none; stroke: #55575b; stroke-width: 2; stroke-linecap: round"/>
   </g>
   <g id="line2d_47">
    <path d="M 574.905 103.48 
L 574.905 112.48 
L 574.905 121.48 
" clip-path="url(#p8c715bc26d)" style="fill: none; stroke: #1f6f6b; stroke-width: 2; stroke-linecap: round"/>
   </g>
   <g id="line2d_48">
    <path d="M 574.905 121.48 
L 574.905 132.28 
M 578.505 140.92 
L 591.105 161.08 
M 574.905 168.28 
L 574.905 179.08 
" clip-path="url(#p8c715bc26d)" style="fill: none; stroke: #b26b00; stroke-width: 2; stroke-linecap: round"/>
   </g>
   <g id="line2d_49">
    <path d="M 574.905 179.08 
L 574.905 196.18 
L 574.905 213.28 
" clip-path="url(#p8c715bc26d)" style="fill: none; stroke: #1f6f6b; stroke-width: 2; stroke-linecap: round"/>
   </g>
   <g id="line2d_50">
    <path d="M 675.705 40.48 
L 675.705 52.18 
L 675.705 63.88 
" clip-path="url(#p8c715bc26d)" style="fill: none; stroke: #1f6f6b; stroke-width: 2; stroke-linecap: round"/>
   </g>
   <g id="line2d_51">
    <path d="M 636.825 103.48 
L 675.705 103.48 
L 714.585 103.48 
" clip-path="url(#p8c715bc26d)" style="fill: none; stroke: #55575b; stroke-width: 2; stroke-linecap: round"/>
   </g>
   <g id="line2d_52">
    <path d="M 714.585 103.48 
L 714.585 83.68 
L 714.585 63.88 
" clip-path="url(#p8c715bc26d)" style="fill: none; stroke: #55575b; stroke-width: 2; stroke-linecap: round"/>
   </g>
   <g id="line2d_53">
    <path d="M 714.585 63.88 
L 675.705 63.88 
L 636.825 63.88 
" clip-path="url(#p8c715bc26d)" style="fill: none; stroke: #55575b; stroke-width: 2; stroke-linecap: round"/>
   </g>
   <g id="line2d_54">
    <path d="M 636.825 63.88 
L 636.825 83.68 
L 636.825 103.48 
" clip-path="url(#p8c715bc26d)" style="fill: none; stroke: #55575b; stroke-width: 2; stroke-linecap: round"/>
   </g>
   <g id="line2d_55">
    <path d="M 675.705 103.48 
L 675.705 112.48 
L 675.705 121.48 
" clip-path="url(#p8c715bc26d)" style="fill: none; stroke: #1f6f6b; stroke-width: 2; stroke-linecap: round"/>
   </g>
   <g id="line2d_56">
    <path d="M 675.705 121.48 
L 675.705 132.28 
M 679.305 140.92 
L 691.905 161.08 
M 675.705 168.28 
L 675.705 179.08 
" clip-path="url(#p8c715bc26d)" style="fill: none; stroke: #b26b00; stroke-width: 2; stroke-linecap: round"/>
   </g>
   <g id="line2d_57">
    <path d="M 675.705 179.08 
L 675.705 196.18 
L 675.705 213.28 
" clip-path="url(#p8c715bc26d)" style="fill: none; stroke: #1f6f6b; stroke-width: 2; stroke-linecap: round"/>
   </g>
   <g id="line2d_58">
    <path d="M 13.305 83.68 
L 13.305 83.68 
M 49.305 83.68 
L 49.305 83.68 
" clip-path="url(#p8c715bc26d)" style="fill: none; stroke: #002060; stroke-width: 2; stroke-linecap: round"/>
   </g>
   <g id="line2d_59">
    <path d="M 49.305 83.68 
L 79.005 83.68 
L 108.705 83.68 
" clip-path="url(#p8c715bc26d)" style="fill: none; stroke-dasharray: 7.4,3.2; stroke-dashoffset: 0; stroke: #002060; stroke-width: 2"/>
   </g>
   <g id="line2d_60">
    <path d="M 6.105 173.68 
L 13.305 173.68 
L 13.305 164.68 
L 49.305 164.68 
L 49.305 182.68 
L 13.305 182.68 
L 13.305 173.68 
M 49.305 173.68 
L 56.505 173.68 
" clip-path="url(#p8c715bc26d)" style="fill: none; stroke: #b26b00; stroke-width: 2; stroke-linecap: round"/>
   </g>
   <g id="line2d_61">
    <path d="M 13.305 189.88 
L 20.505 189.88 
L 49.305 157.48 
" clip-path="url(#p8c715bc26d)" style="fill: none; stroke: #b26b00; stroke-width: 2; stroke-linecap: round"/>
   </g>
   <g id="line2d_62">
    <path d="M 56.505 173.68 
L 82.605 173.68 
L 108.705 173.68 
" clip-path="url(#p8c715bc26d)" style="fill: none; stroke-dasharray: 7.4,3.2; stroke-dashoffset: 0; stroke: #b26b00; stroke-width: 2"/>
   </g>
   <g id="text_1">
    <!-- B− -->
    <g style="fill: #1f6f6b" transform="translate(160.411641 205.114219) scale(0.125 -0.125)">
     <defs>
      <path id="LiberationSerif-25" d="M 2994 3175 
Q 2994 3559 2753 3734 
Q 2513 3909 1972 3909 
L 1325 3909 
L 1325 2325 
L 2009 2325 
Q 2516 2325 2755 2525 
Q 2994 2725 2994 3175 
z
M 3309 1194 
Q 3309 1634 3015 1839 
Q 2722 2044 2075 2044 
L 1325 2044 
L 1325 281 
Q 1756 263 2244 263 
Q 2778 263 3043 489 
Q 3309 716 3309 1194 
z
M 184 0 
L 184 166 
L 722 250 
L 722 3944 
L 184 4025 
L 184 4191 
L 2100 4191 
Q 2897 4191 3265 3955 
Q 3634 3719 3634 3206 
Q 3634 2838 3407 2578 
Q 3181 2319 2772 2231 
Q 3338 2172 3647 1901 
Q 3956 1631 3956 1206 
Q 3956 603 3539 292 
Q 3122 -19 2322 -19 
L 984 0 
L 184 0 
z
" transform="scale(0.015625)"/>
      <path id="LiberationSerif-850" d="M 3297 2284 
L 3297 1966 
L 319 1966 
L 319 2284 
L 3297 2284 
z
" transform="scale(0.015625)"/>
     </defs>
     <use xlink:href="#LiberationSerif-25"/>
     <use xlink:href="#LiberationSerif-850" transform="translate(66.703125 0)"/>
    </g>
   </g>
   <g id="text_2">
    <!-- B1 -->
    <g style="fill: #1f6f6b" transform="translate(160.811055 161.947422) scale(0.125 -0.125)">
     <defs>
      <path id="LiberationSerif-14" d="M 1959 250 
L 2816 166 
L 2816 0 
L 563 0 
L 563 166 
L 1422 250 
L 1422 3669 
L 575 3366 
L 575 3531 
L 1797 4225 
L 1959 4225 
L 1959 250 
z
" transform="scale(0.015625)"/>
     </defs>
     <use xlink:href="#LiberationSerif-25"/>
     <use xlink:href="#LiberationSerif-14" transform="translate(66.703125 0)"/>
    </g>
   </g>
   <g id="text_3">
    <!-- B2 -->
    <g style="fill: #1f6f6b" transform="translate(160.811055 118.760117) scale(0.125 -0.125)">
     <defs>
      <path id="LiberationSerif-15" d="M 2847 0 
L 281 0 
L 281 459 
L 863 988 
Q 1422 1478 1684 1781 
Q 1947 2084 2061 2406 
Q 2175 2728 2175 3144 
Q 2175 3550 1990 3762 
Q 1806 3975 1388 3975 
Q 1222 3975 1047 3929 
Q 872 3884 738 3809 
L 628 3297 
L 422 3297 
L 422 4103 
Q 991 4238 1388 4238 
Q 2075 4238 2420 3952 
Q 2766 3666 2766 3144 
Q 2766 2794 2630 2483 
Q 2494 2172 2212 1864 
Q 1931 1556 1281 1003 
Q 1003 766 691 481 
L 2847 481 
L 2847 0 
z
" transform="scale(0.015625)"/>
     </defs>
     <use xlink:href="#LiberationSerif-25"/>
     <use xlink:href="#LiberationSerif-15" transform="translate(66.703125 0)"/>
    </g>
   </g>
   <g id="text_4">
    <!-- B3 -->
    <g style="fill: #1f6f6b" transform="translate(160.811055 75.517148) scale(0.125 -0.125)">
     <defs>
      <path id="LiberationSerif-16" d="M 2950 1141 
Q 2950 575 2562 256 
Q 2175 -63 1466 -63 
Q 872 -63 341 72 
L 306 953 
L 513 953 
L 653 366 
Q 775 297 998 247 
Q 1222 197 1416 197 
Q 1906 197 2140 422 
Q 2375 647 2375 1172 
Q 2375 1584 2159 1798 
Q 1944 2013 1491 2034 
L 1044 2059 
L 1044 2316 
L 1491 2344 
Q 1844 2363 2012 2563 
Q 2181 2763 2181 3169 
Q 2181 3591 1998 3783 
Q 1816 3975 1416 3975 
Q 1250 3975 1069 3929 
Q 888 3884 750 3809 
L 641 3297 
L 434 3297 
L 434 4103 
Q 744 4184 969 4211 
Q 1194 4238 1416 4238 
Q 2759 4238 2759 3206 
Q 2759 2772 2520 2514 
Q 2281 2256 1844 2194 
Q 2413 2128 2681 1867 
Q 2950 1606 2950 1141 
z
" transform="scale(0.015625)"/>
     </defs>
     <use xlink:href="#LiberationSerif-25"/>
     <use xlink:href="#LiberationSerif-16" transform="translate(66.703125 0)"/>
    </g>
   </g>
   <g id="text_5">
    <!-- B+ -->
    <g style="fill: #1f6f6b" transform="translate(160.411641 32.314219) scale(0.125 -0.125)">
     <defs>
      <path id="LiberationSerif-e" d="M 1966 1966 
L 1966 634 
L 1644 634 
L 1644 1966 
L 319 1966 
L 319 2284 
L 1644 2284 
L 1644 3616 
L 1966 3616 
L 1966 2284 
L 3297 2284 
L 3297 1966 
L 1966 1966 
z
" transform="scale(0.015625)"/>
     </defs>
     <use xlink:href="#LiberationSerif-25"/>
     <use xlink:href="#LiberationSerif-e" transform="translate(66.703125 0)"/>
    </g>
   </g>
   <g id="text_6">
    <!-- 4S1P pack -->
    <g style="fill: #1f6f6b" transform="translate(95.414219 15.046562) scale(0.14 -0.14)">
     <defs>
      <path id="LiberationSerif-17" d="M 2531 922 
L 2531 0 
L 1994 0 
L 1994 922 
L 125 922 
L 125 1338 
L 2172 4213 
L 2531 4213 
L 2531 1369 
L 3100 1369 
L 3100 922 
L 2531 922 
z
M 1994 3478 
L 1978 3478 
L 478 1369 
L 1994 1369 
L 1994 3478 
z
" transform="scale(0.015625)"/>
      <path id="LiberationSerif-36" d="M 434 1128 
L 638 1128 
L 747 563 
Q 863 416 1145 303 
Q 1428 191 1703 191 
Q 2141 191 2386 414 
Q 2631 638 2631 1031 
Q 2631 1256 2536 1403 
Q 2441 1550 2286 1651 
Q 2131 1753 1934 1823 
Q 1738 1894 1530 1966 
Q 1322 2038 1125 2125 
Q 928 2213 773 2347 
Q 619 2481 523 2679 
Q 428 2878 428 3169 
Q 428 3669 803 3953 
Q 1178 4238 1844 4238 
Q 2350 4238 2944 4103 
L 2944 3231 
L 2741 3231 
L 2631 3744 
Q 2313 3975 1844 3975 
Q 1425 3975 1189 3804 
Q 953 3634 953 3334 
Q 953 3131 1048 2997 
Q 1144 2863 1298 2767 
Q 1453 2672 1651 2603 
Q 1850 2534 2058 2461 
Q 2266 2388 2464 2295 
Q 2663 2203 2817 2061 
Q 2972 1919 3067 1714 
Q 3163 1509 3163 1209 
Q 3163 603 2791 270 
Q 2419 -63 1719 -63 
Q 1381 -63 1040 -3 
Q 700 56 434 159 
L 434 1128 
z
" transform="scale(0.015625)"/>
      <path id="LiberationSerif-33" d="M 2681 2950 
Q 2681 3466 2440 3687 
Q 2200 3909 1631 3909 
L 1325 3909 
L 1325 1925 
L 1650 1925 
Q 2178 1925 2429 2165 
Q 2681 2406 2681 2950 
z
M 1325 1644 
L 1325 250 
L 1991 166 
L 1991 0 
L 225 0 
L 225 166 
L 722 250 
L 722 3944 
L 184 4025 
L 184 4191 
L 1766 4191 
Q 3303 4191 3303 2956 
Q 3303 2313 2914 1978 
Q 2525 1644 1797 1644 
L 1325 1644 
z
" transform="scale(0.015625)"/>
      <path id="LiberationSerif-3" transform="scale(0.015625)"/>
      <path id="LiberationSerif-53" d="M 475 2719 
L 141 2797 
L 141 2938 
L 966 2938 
L 972 2766 
Q 1103 2878 1323 2947 
Q 1544 3016 1772 3016 
Q 2334 3016 2642 2625 
Q 2950 2234 2950 1503 
Q 2950 756 2614 346 
Q 2278 -63 1644 -63 
Q 1291 -63 972 6 
Q 991 -219 991 -347 
L 991 -1141 
L 1503 -1216 
L 1503 -1363 
L 103 -1363 
L 103 -1216 
L 475 -1141 
L 475 2719 
z
M 2388 1503 
Q 2388 2103 2192 2395 
Q 1997 2688 1600 2688 
Q 1234 2688 991 2584 
L 991 238 
Q 1269 184 1600 184 
Q 2388 184 2388 1503 
z
" transform="scale(0.015625)"/>
      <path id="LiberationSerif-44" d="M 1453 3003 
Q 1934 3003 2161 2806 
Q 2388 2609 2388 2203 
L 2388 219 
L 2753 141 
L 2753 0 
L 1947 0 
L 1888 294 
Q 1531 -63 978 -63 
Q 225 -63 225 813 
Q 225 1106 339 1298 
Q 453 1491 703 1592 
Q 953 1694 1428 1703 
L 1869 1716 
L 1869 2175 
Q 1869 2478 1758 2622 
Q 1647 2766 1416 2766 
Q 1103 2766 844 2619 
L 738 2253 
L 563 2253 
L 563 2894 
Q 1069 3003 1453 3003 
z
M 1869 1497 
L 1459 1484 
Q 1041 1469 892 1322 
Q 744 1175 744 831 
Q 744 281 1191 281 
Q 1403 281 1558 329 
Q 1713 378 1869 453 
L 1869 1497 
z
" transform="scale(0.015625)"/>
      <path id="LiberationSerif-46" d="M 2644 178 
Q 2491 66 2222 1 
Q 1953 -63 1672 -63 
Q 244 -63 244 1491 
Q 244 2225 608 2620 
Q 972 3016 1650 3016 
Q 2072 3016 2572 2919 
L 2572 2100 
L 2400 2100 
L 2266 2619 
Q 2006 2766 1644 2766 
Q 806 2766 806 1491 
Q 806 828 1061 545 
Q 1316 263 1850 263 
Q 2306 263 2644 366 
L 2644 178 
z
" transform="scale(0.015625)"/>
      <path id="LiberationSerif-4e" d="M 1075 1416 
L 2278 2713 
L 1972 2797 
L 1972 2938 
L 3009 2938 
L 3009 2797 
L 2644 2725 
L 1806 1869 
L 2881 213 
L 3200 141 
L 3200 0 
L 1997 0 
L 1997 141 
L 2266 219 
L 1459 1484 
L 1075 1063 
L 1075 219 
L 1388 141 
L 1388 0 
L 184 0 
L 184 141 
L 556 219 
L 556 4225 
L 122 4300 
L 122 4441 
L 1075 4441 
L 1075 1416 
z
" transform="scale(0.015625)"/>
     </defs>
     <use xlink:href="#LiberationSerif-17"/>
     <use xlink:href="#LiberationSerif-36" transform="translate(50 0)"/>
     <use xlink:href="#LiberationSerif-14" transform="translate(105.609375 0)"/>
     <use xlink:href="#LiberationSerif-33" transform="translate(155.609375 0)"/>
     <use xlink:href="#LiberationSerif-3" transform="translate(207.515625 0)"/>
     <use xlink:href="#LiberationSerif-53" transform="translate(232.515625 0)"/>
     <use xlink:href="#LiberationSerif-44" transform="translate(282.515625 0)"/>
     <use xlink:href="#LiberationSerif-46" transform="translate(326.90625 0)"/>
     <use xlink:href="#LiberationSerif-4e" transform="translate(371.296875 0)"/>
    </g>
   </g>
   <g id="text_7">
    <!-- Hardware BMS -->
    <g style="fill: #b26b00" transform="translate(224.326562 105.378066) scale(0.13 -0.13)">
     <defs>
      <path id="LiberationSerif-2b" d="M 184 0 
L 184 166 
L 722 250 
L 722 3944 
L 184 4025 
L 184 4191 
L 1863 4191 
L 1863 4025 
L 1325 3944 
L 1325 2297 
L 3297 2297 
L 3297 3944 
L 2759 4025 
L 2759 4191 
L 4434 4191 
L 4434 4025 
L 3897 3944 
L 3897 250 
L 4434 166 
L 4434 0 
L 2759 0 
L 2759 166 
L 3297 250 
L 3297 2016 
L 1325 2016 
L 1325 250 
L 1863 166 
L 1863 0 
L 184 0 
z
" transform="scale(0.015625)"/>
      <path id="LiberationSerif-55" d="M 2075 3016 
L 2075 2222 
L 1941 2222 
L 1759 2566 
Q 1603 2566 1389 2523 
Q 1175 2481 1019 2413 
L 1019 219 
L 1522 141 
L 1522 0 
L 128 0 
L 128 141 
L 500 219 
L 500 2719 
L 128 2797 
L 128 2938 
L 984 2938 
L 1013 2572 
Q 1200 2728 1520 2872 
Q 1841 3016 2028 3016 
L 2075 3016 
z
" transform="scale(0.015625)"/>
      <path id="LiberationSerif-47" d="M 2259 219 
Q 1906 -63 1434 -63 
Q 231 -63 231 1441 
Q 231 2213 572 2614 
Q 913 3016 1575 3016 
Q 1913 3016 2259 2944 
Q 2241 3047 2241 3463 
L 2241 4225 
L 1747 4300 
L 1747 4441 
L 2759 4441 
L 2759 219 
L 3122 141 
L 3122 0 
L 2297 0 
L 2259 219 
z
M 794 1441 
Q 794 847 994 555 
Q 1194 263 1606 263 
Q 1959 263 2241 384 
L 2241 2706 
Q 1963 2759 1606 2759 
Q 794 2759 794 1441 
z
" transform="scale(0.015625)"/>
      <path id="LiberationSerif-5a" d="M 3284 -63 
L 3041 -63 
L 2316 1875 
L 1600 -63 
L 1369 -63 
L 353 2719 
L 6 2797 
L 6 2938 
L 1403 2938 
L 1403 2797 
L 916 2713 
L 1613 728 
L 2322 2644 
L 2584 2644 
L 3291 716 
L 3956 2719 
L 3475 2797 
L 3475 2938 
L 4594 2938 
L 4594 2797 
L 4269 2731 
L 3284 -63 
z
" transform="scale(0.015625)"/>
      <path id="LiberationSerif-48" d="M 813 1478 
L 813 1422 
Q 813 991 908 752 
Q 1003 513 1201 388 
Q 1400 263 1722 263 
Q 1891 263 2122 291 
Q 2353 319 2503 353 
L 2503 178 
Q 2353 81 2095 9 
Q 1838 -63 1569 -63 
Q 884 -63 567 306 
Q 250 675 250 1491 
Q 250 2259 572 2637 
Q 894 3016 1491 3016 
Q 2619 3016 2619 1734 
L 2619 1478 
L 813 1478 
z
M 1491 2766 
Q 1166 2766 992 2503 
Q 819 2241 819 1728 
L 2075 1728 
Q 2075 2288 1931 2527 
Q 1788 2766 1491 2766 
z
" transform="scale(0.015625)"/>
      <path id="LiberationSerif-30" d="M 2694 0 
L 2584 0 
L 1050 3603 
L 1050 250 
L 1613 166 
L 1613 0 
L 184 0 
L 184 166 
L 722 250 
L 722 3944 
L 184 4025 
L 184 4191 
L 1453 4191 
L 2816 1003 
L 4303 4191 
L 5503 4191 
L 5503 4025 
L 4966 3944 
L 4966 250 
L 5503 166 
L 5503 0 
L 3803 0 
L 3803 166 
L 4366 250 
L 4366 3603 
L 2694 0 
z
" transform="scale(0.015625)"/>
     </defs>
     <use xlink:href="#LiberationSerif-2b"/>
     <use xlink:href="#LiberationSerif-44" transform="translate(72.21875 0)"/>
     <use xlink:href="#LiberationSerif-55" transform="translate(116.609375 0)"/>
     <use xlink:href="#LiberationSerif-47" transform="translate(149.90625 0)"/>
     <use xlink:href="#LiberationSerif-5a" transform="translate(199.90625 0)"/>
     <use xlink:href="#LiberationSerif-44" transform="translate(272.125 0)"/>
     <use xlink:href="#LiberationSerif-55" transform="translate(316.515625 0)"/>
     <use xlink:href="#LiberationSerif-48" transform="translate(349.8125 0)"/>
     <use xlink:href="#LiberationSerif-3" transform="translate(394.203125 0)"/>
     <use xlink:href="#LiberationSerif-25" transform="translate(419.203125 0)"/>
     <use xlink:href="#LiberationSerif-30" transform="translate(485.90625 0)"/>
     <use xlink:href="#LiberationSerif-36" transform="translate(574.828125 0)"/>
    </g>
    <!-- 4S NMC · 20 A -->
    <g style="fill: #b26b00" transform="translate(224.130547 117.009512) scale(0.13 -0.13)">
     <defs>
      <path id="LiberationSerif-31" d="M 3609 3944 
L 3047 4025 
L 3047 4191 
L 4475 4191 
L 4475 4025 
L 3938 3944 
L 3938 0 
L 3634 0 
L 1050 3769 
L 1050 250 
L 1613 166 
L 1613 0 
L 184 0 
L 184 166 
L 722 250 
L 722 3944 
L 184 4025 
L 184 4191 
L 1453 4191 
L 3609 1088 
L 3609 3944 
z
" transform="scale(0.015625)"/>
      <path id="LiberationSerif-26" d="M 2419 -63 
Q 1400 -63 831 492 
Q 263 1047 263 2047 
Q 263 3128 809 3683 
Q 1356 4238 2431 4238 
Q 3084 4238 3834 4078 
L 3853 3163 
L 3647 3163 
L 3553 3706 
Q 3334 3841 3045 3914 
Q 2756 3988 2456 3988 
Q 1653 3988 1284 3516 
Q 916 3044 916 2053 
Q 916 1141 1302 659 
Q 1688 178 2425 178 
Q 2781 178 3097 264 
Q 3413 350 3597 494 
L 3713 1119 
L 3916 1119 
L 3897 134 
Q 3209 -63 2419 -63 
z
" transform="scale(0.015625)"/>
      <path id="LiberationSerif-79" d="M 1444 2119 
Q 1444 1959 1334 1850 
Q 1225 1741 1066 1741 
Q 906 1741 797 1850 
Q 688 1959 688 2119 
Q 688 2272 795 2384 
Q 903 2497 1066 2497 
Q 1228 2497 1336 2384 
Q 1444 2272 1444 2119 
z
" transform="scale(0.015625)"/>
      <path id="LiberationSerif-13" d="M 2956 2113 
Q 2956 -63 1581 -63 
Q 919 -63 581 493 
Q 244 1050 244 2113 
Q 244 3153 581 3704 
Q 919 4256 1606 4256 
Q 2269 4256 2612 3711 
Q 2956 3166 2956 2113 
z
M 2381 2113 
Q 2381 3119 2190 3562 
Q 2000 4006 1581 4006 
Q 1175 4006 997 3587 
Q 819 3169 819 2113 
Q 819 1050 1000 617 
Q 1181 184 1581 184 
Q 1994 184 2187 639 
Q 2381 1094 2381 2113 
z
" transform="scale(0.015625)"/>
      <path id="LiberationSerif-24" d="M 1441 166 
L 1441 0 
L 63 0 
L 63 166 
L 538 250 
L 1966 4225 
L 2559 4225 
L 4044 250 
L 4575 166 
L 4575 0 
L 2803 0 
L 2803 166 
L 3366 250 
L 2950 1459 
L 1300 1459 
L 878 250 
L 1441 166 
z
M 2113 3775 
L 1394 1741 
L 2853 1741 
L 2113 3775 
z
" transform="scale(0.015625)"/>
     </defs>
     <use xlink:href="#LiberationSerif-17"/>
     <use xlink:href="#LiberationSerif-36" transform="translate(50 0)"/>
     <use xlink:href="#LiberationSerif-3" transform="translate(105.609375 0)"/>
     <use xlink:href="#LiberationSerif-31" transform="translate(130.609375 0)"/>
     <use xlink:href="#LiberationSerif-30" transform="translate(202.828125 0)"/>
     <use xlink:href="#LiberationSerif-26" transform="translate(291.75 0)"/>
     <use xlink:href="#LiberationSerif-3" transform="translate(358.453125 0)"/>
     <use xlink:href="#LiberationSerif-79" transform="translate(383.453125 0)"/>
     <use xlink:href="#LiberationSerif-3" transform="translate(416.75 0)"/>
     <use xlink:href="#LiberationSerif-15" transform="translate(441.75 0)"/>
     <use xlink:href="#LiberationSerif-13" transform="translate(491.75 0)"/>
     <use xlink:href="#LiberationSerif-3" transform="translate(541.75 0)"/>
     <use xlink:href="#LiberationSerif-24" transform="translate(561.234375 0)"/>
    </g>
    <!--  -->
    <g style="fill: #b26b00" transform="translate(265.305 124.570332) scale(0.13 -0.13)"/>
    <!-- OV · UV -->
    <g style="fill: #b26b00" transform="translate(241.231641 140.595371) scale(0.13 -0.13)">
     <defs>
      <path id="LiberationSerif-32" d="M 916 2100 
Q 916 1091 1253 637 
Q 1591 184 2309 184 
Q 3025 184 3365 637 
Q 3706 1091 3706 2100 
Q 3706 3103 3367 3545 
Q 3028 3988 2309 3988 
Q 1588 3988 1252 3545 
Q 916 3103 916 2100 
z
M 263 2100 
Q 263 4238 2309 4238 
Q 3322 4238 3840 3695 
Q 4359 3153 4359 2100 
Q 4359 1031 3834 484 
Q 3309 -63 2309 -63 
Q 1313 -63 788 482 
Q 263 1028 263 2100 
z
" transform="scale(0.015625)"/>
      <path id="LiberationSerif-39" d="M 4550 4191 
L 4550 4025 
L 4091 3944 
L 2406 -97 
L 2247 -97 
L 544 3944 
L 72 4025 
L 72 4191 
L 1766 4191 
L 1766 4025 
L 1203 3944 
L 2472 859 
L 3738 3944 
L 3188 4025 
L 3188 4191 
L 4550 4191 
z
" transform="scale(0.015625)"/>
      <path id="LiberationSerif-38" d="M 3622 3944 
L 3059 4025 
L 3059 4191 
L 4488 4191 
L 4488 4025 
L 3950 3944 
L 3950 1441 
Q 3950 688 3536 312 
Q 3122 -63 2334 -63 
Q 1500 -63 1086 314 
Q 672 691 672 1381 
L 672 3944 
L 134 4025 
L 134 4191 
L 1809 4191 
L 1809 4025 
L 1272 3944 
L 1272 1428 
Q 1272 288 2381 288 
Q 2981 288 3301 572 
Q 3622 856 3622 1416 
L 3622 3944 
z
" transform="scale(0.015625)"/>
     </defs>
     <use xlink:href="#LiberationSerif-32"/>
     <use xlink:href="#LiberationSerif-39" transform="translate(72.21875 0)"/>
     <use xlink:href="#LiberationSerif-3" transform="translate(142.625 0)"/>
     <use xlink:href="#LiberationSerif-79" transform="translate(167.625 0)"/>
     <use xlink:href="#LiberationSerif-3" transform="translate(200.921875 0)"/>
     <use xlink:href="#LiberationSerif-38" transform="translate(225.921875 0)"/>
     <use xlink:href="#LiberationSerif-39" transform="translate(298.140625 0)"/>
    </g>
    <!-- OC · SC -->
    <g style="fill: #b26b00" transform="translate(242.910469 152.449238) scale(0.13 -0.13)">
     <use xlink:href="#LiberationSerif-32"/>
     <use xlink:href="#LiberationSerif-26" transform="translate(72.21875 0)"/>
     <use xlink:href="#LiberationSerif-3" transform="translate(138.921875 0)"/>
     <use xlink:href="#LiberationSerif-79" transform="translate(163.921875 0)"/>
     <use xlink:href="#LiberationSerif-3" transform="translate(197.21875 0)"/>
     <use xlink:href="#LiberationSerif-36" transform="translate(222.21875 0)"/>
     <use xlink:href="#LiberationSerif-26" transform="translate(277.828125 0)"/>
    </g>
    <!-- balancing -->
    <g style="fill: #b26b00" transform="translate(240.037266 163.136152) scale(0.13 -0.13)">
     <defs>
      <path id="LiberationSerif-45" d="M 2394 1550 
Q 2394 2125 2194 2406 
Q 1994 2688 1575 2688 
Q 1391 2688 1209 2655 
Q 1028 2622 947 2584 
L 947 256 
Q 1209 206 1575 206 
Q 2006 206 2200 543 
Q 2394 881 2394 1550 
z
M 428 4225 
L 0 4300 
L 0 4441 
L 947 4441 
L 947 3391 
Q 947 3222 928 2772 
Q 1241 3016 1716 3016 
Q 2316 3016 2636 2652 
Q 2956 2288 2956 1550 
Q 2956 759 2604 348 
Q 2253 -63 1588 -63 
Q 1319 -63 995 -3 
Q 672 56 428 153 
L 428 4225 
z
" transform="scale(0.015625)"/>
      <path id="LiberationSerif-4f" d="M 1147 219 
L 1650 141 
L 1650 0 
L 128 0 
L 128 141 
L 628 219 
L 628 4225 
L 128 4300 
L 128 4441 
L 1147 4441 
L 1147 219 
z
" transform="scale(0.015625)"/>
      <path id="LiberationSerif-51" d="M 1013 2700 
Q 1253 2838 1525 2927 
Q 1797 3016 1978 3016 
Q 2359 3016 2553 2794 
Q 2747 2572 2747 2150 
L 2747 219 
L 3103 141 
L 3103 0 
L 1838 0 
L 1838 141 
L 2228 219 
L 2228 2094 
Q 2228 2353 2101 2501 
Q 1975 2650 1709 2650 
Q 1428 2650 1019 2559 
L 1019 219 
L 1416 141 
L 1416 0 
L 147 0 
L 147 141 
L 500 219 
L 500 2719 
L 147 2797 
L 147 2938 
L 984 2938 
L 1013 2700 
z
" transform="scale(0.015625)"/>
      <path id="LiberationSerif-4c" d="M 1184 3897 
Q 1184 3759 1084 3659 
Q 984 3559 844 3559 
Q 706 3559 606 3659 
Q 506 3759 506 3897 
Q 506 4038 606 4138 
Q 706 4238 844 4238 
Q 984 4238 1084 4138 
Q 1184 4038 1184 3897 
z
M 1153 219 
L 1656 141 
L 1656 0 
L 134 0 
L 134 141 
L 634 219 
L 634 2719 
L 219 2797 
L 219 2938 
L 1153 2938 
L 1153 219 
z
" transform="scale(0.015625)"/>
      <path id="LiberationSerif-4a" d="M 2719 2009 
Q 2719 1503 2416 1243 
Q 2113 984 1544 984 
Q 1288 984 1069 1031 
L 872 622 
Q 881 569 993 522 
Q 1106 475 1275 475 
L 2144 475 
Q 2619 475 2848 269 
Q 3078 63 3078 -300 
Q 3078 -628 2895 -872 
Q 2713 -1116 2359 -1248 
Q 2006 -1381 1503 -1381 
Q 903 -1381 589 -1197 
Q 275 -1013 275 -672 
Q 275 -506 387 -345 
Q 500 -184 800 31 
Q 622 91 500 234 
Q 378 378 378 544 
L 872 1100 
Q 378 1331 378 2009 
Q 378 2491 683 2753 
Q 988 3016 1569 3016 
Q 1684 3016 1865 2992 
Q 2047 2969 2144 2938 
L 2834 3284 
L 2944 3150 
L 2509 2700 
Q 2719 2466 2719 2009 
z
M 2591 -397 
Q 2591 -219 2481 -119 
Q 2372 -19 2150 -19 
L 1013 -19 
Q 881 -131 798 -304 
Q 716 -478 716 -628 
Q 716 -897 909 -1014 
Q 1103 -1131 1503 -1131 
Q 2025 -1131 2308 -937 
Q 2591 -744 2591 -397 
z
M 1550 1222 
Q 1891 1222 2033 1417 
Q 2175 1613 2175 2009 
Q 2175 2425 2028 2601 
Q 1881 2778 1556 2778 
Q 1228 2778 1075 2600 
Q 922 2422 922 2009 
Q 922 1597 1072 1409 
Q 1222 1222 1550 1222 
z
" transform="scale(0.015625)"/>
     </defs>
     <use xlink:href="#LiberationSerif-45"/>
     <use xlink:href="#LiberationSerif-44" transform="translate(50 0)"/>
     <use xlink:href="#LiberationSerif-4f" transform="translate(94.390625 0)"/>
     <use xlink:href="#LiberationSerif-44" transform="translate(122.171875 0)"/>
     <use xlink:href="#LiberationSerif-51" transform="translate(166.5625 0)"/>
     <use xlink:href="#LiberationSerif-46" transform="translate(216.5625 0)"/>
     <use xlink:href="#LiberationSerif-4c" transform="translate(260.953125 0)"/>
     <use xlink:href="#LiberationSerif-51" transform="translate(288.734375 0)"/>
     <use xlink:href="#LiberationSerif-4a" transform="translate(338.734375 0)"/>
    </g>
   </g>
   <g id="text_8">
    <!-- P+ -->
    <g style="fill: #1f6f6b" transform="translate(326.425 30.336484) scale(0.13 -0.13)">
     <use xlink:href="#LiberationSerif-33"/>
     <use xlink:href="#LiberationSerif-e" transform="translate(55.609375 0)"/>
    </g>
   </g>
   <g id="text_9">
    <!-- F1  7.5 A -->
    <g style="fill: #a3231f" transform="translate(388.643125 19.081562) scale(0.14 -0.14)">
     <defs>
      <path id="LiberationSerif-29" d="M 1325 1881 
L 1325 250 
L 2022 166 
L 2022 0 
L 225 0 
L 225 166 
L 722 250 
L 722 3944 
L 184 4025 
L 184 4191 
L 3328 4191 
L 3328 3188 
L 3122 3188 
L 3022 3866 
Q 2672 3909 2009 3909 
L 1325 3909 
L 1325 2163 
L 2559 2163 
L 2656 2663 
L 2847 2663 
L 2847 1375 
L 2656 1375 
L 2559 1881 
L 1325 1881 
z
" transform="scale(0.015625)"/>
      <path id="LiberationSerif-1a" d="M 628 3200 
L 422 3200 
L 422 4191 
L 3016 4191 
L 3016 3950 
L 1147 0 
L 744 0 
L 2578 3713 
L 738 3713 
L 628 3200 
z
" transform="scale(0.015625)"/>
      <path id="LiberationSerif-11" d="M 1178 288 
Q 1178 134 1070 21 
Q 963 -91 800 -91 
Q 638 -91 530 21 
Q 422 134 422 288 
Q 422 447 531 556 
Q 641 666 800 666 
Q 959 666 1068 556 
Q 1178 447 1178 288 
z
" transform="scale(0.015625)"/>
      <path id="LiberationSerif-18" d="M 1516 2450 
Q 2241 2450 2595 2153 
Q 2950 1856 2950 1247 
Q 2950 616 2565 276 
Q 2181 -63 1466 -63 
Q 872 -63 406 72 
L 372 953 
L 578 953 
L 719 366 
Q 856 291 1048 244 
Q 1241 197 1416 197 
Q 1909 197 2142 430 
Q 2375 663 2375 1216 
Q 2375 1603 2275 1801 
Q 2175 2000 1956 2094 
Q 1738 2188 1369 2188 
Q 1084 2188 813 2113 
L 513 2113 
L 513 4191 
L 2638 4191 
L 2638 3713 
L 794 3713 
L 794 2375 
Q 1131 2450 1516 2450 
z
" transform="scale(0.015625)"/>
     </defs>
     <use xlink:href="#LiberationSerif-29"/>
     <use xlink:href="#LiberationSerif-14" transform="translate(55.609375 0)"/>
     <use xlink:href="#LiberationSerif-3" transform="translate(105.609375 0)"/>
     <use xlink:href="#LiberationSerif-3" transform="translate(130.609375 0)"/>
     <use xlink:href="#LiberationSerif-1a" transform="translate(155.609375 0)"/>
     <use xlink:href="#LiberationSerif-11" transform="translate(205.609375 0)"/>
     <use xlink:href="#LiberationSerif-18" transform="translate(230.609375 0)"/>
     <use xlink:href="#LiberationSerif-3" transform="translate(280.609375 0)"/>
     <use xlink:href="#LiberationSerif-24" transform="translate(300.09375 0)"/>
    </g>
   </g>
   <g id="text_10">
    <!-- 5 mΩ shunt -->
    <g style="fill: #002060" transform="translate(459.289219 19.348437) scale(0.14 -0.14)">
     <defs>
      <path id="LiberationSerif-50" d="M 1019 2700 
Q 1253 2834 1515 2925 
Q 1778 3016 1978 3016 
Q 2194 3016 2376 2934 
Q 2559 2853 2650 2675 
Q 2891 2809 3214 2912 
Q 3538 3016 3750 3016 
Q 4500 3016 4500 2150 
L 4500 219 
L 4878 141 
L 4878 0 
L 3544 0 
L 3544 141 
L 3981 219 
L 3981 2094 
Q 3981 2631 3481 2631 
Q 3400 2631 3292 2618 
Q 3184 2606 3076 2590 
Q 2969 2575 2870 2554 
Q 2772 2534 2706 2522 
Q 2759 2353 2759 2150 
L 2759 219 
L 3200 141 
L 3200 0 
L 1806 0 
L 1806 141 
L 2241 219 
L 2241 2094 
Q 2241 2353 2108 2492 
Q 1975 2631 1709 2631 
Q 1434 2631 1025 2541 
L 1025 219 
L 1466 141 
L 1466 0 
L 134 0 
L 134 141 
L 506 219 
L 506 2719 
L 134 2797 
L 134 2938 
L 994 2938 
L 1019 2700 
z
" transform="scale(0.015625)"/>
      <path id="LiberationSerif-35b" d="M 2378 3988 
Q 1672 3988 1328 3633 
Q 984 3278 984 2503 
Q 984 1881 1271 1509 
Q 1559 1138 2088 1072 
L 2172 0 
L 394 0 
L 334 1031 
L 541 1031 
L 719 581 
Q 969 531 1606 531 
L 1831 531 
L 1800 847 
Q 1128 950 729 1397 
Q 331 1844 331 2503 
Q 331 3353 850 3795 
Q 1369 4238 2378 4238 
Q 3388 4238 3906 3795 
Q 4425 3353 4425 2503 
Q 4425 1844 4025 1397 
Q 3625 950 2956 847 
L 2925 531 
L 3150 531 
Q 3788 531 4038 581 
L 4216 1031 
L 4422 1031 
L 4363 0 
L 2584 0 
L 2669 1072 
Q 3200 1138 3486 1509 
Q 3772 1881 3772 2503 
Q 3772 3281 3428 3634 
Q 3084 3988 2378 3988 
z
" transform="scale(0.015625)"/>
      <path id="LiberationSerif-56" d="M 2259 825 
Q 2259 388 1982 162 
Q 1706 -63 1166 -63 
Q 947 -63 683 -17 
Q 419 28 269 84 
L 269 806 
L 409 806 
L 563 397 
Q 797 184 1172 184 
Q 1778 184 1778 703 
Q 1778 1084 1300 1247 
L 1022 1338 
Q 706 1441 562 1547 
Q 419 1653 341 1808 
Q 263 1963 263 2181 
Q 263 2569 527 2792 
Q 791 3016 1241 3016 
Q 1563 3016 2047 2919 
L 2047 2278 
L 1900 2278 
L 1769 2619 
Q 1603 2766 1247 2766 
Q 994 2766 861 2641 
Q 728 2516 728 2303 
Q 728 2125 848 2003 
Q 969 1881 1213 1800 
Q 1672 1644 1812 1572 
Q 1953 1500 2051 1395 
Q 2150 1291 2204 1156 
Q 2259 1022 2259 825 
z
" transform="scale(0.015625)"/>
      <path id="LiberationSerif-4b" d="M 1019 3169 
Q 1019 2844 997 2700 
Q 1222 2828 1508 2922 
Q 1794 3016 1991 3016 
Q 2372 3016 2565 2794 
Q 2759 2572 2759 2150 
L 2759 219 
L 3116 141 
L 3116 0 
L 1850 0 
L 1850 141 
L 2241 219 
L 2241 2113 
Q 2241 2650 1722 2650 
Q 1428 2650 1019 2559 
L 1019 219 
L 1416 141 
L 1416 0 
L 128 0 
L 128 141 
L 500 219 
L 500 4225 
L 63 4300 
L 63 4441 
L 1019 4441 
L 1019 3169 
z
" transform="scale(0.015625)"/>
      <path id="LiberationSerif-58" d="M 978 838 
Q 978 300 1478 300 
Q 1866 300 2203 397 
L 2203 2719 
L 1759 2797 
L 1759 2938 
L 2719 2938 
L 2719 219 
L 3091 141 
L 3091 0 
L 2234 0 
L 2209 238 
Q 1988 116 1697 26 
Q 1406 -63 1209 -63 
Q 459 -63 459 800 
L 459 2719 
L 84 2797 
L 84 2938 
L 978 2938 
L 978 838 
z
" transform="scale(0.015625)"/>
      <path id="LiberationSerif-57" d="M 1044 -63 
Q 744 -63 595 115 
Q 447 294 447 616 
L 447 2675 
L 63 2675 
L 63 2816 
L 453 2938 
L 769 3603 
L 966 3603 
L 966 2938 
L 1638 2938 
L 1638 2675 
L 966 2675 
L 966 672 
Q 966 469 1058 366 
Q 1150 263 1300 263 
Q 1481 263 1741 313 
L 1741 109 
Q 1631 34 1425 -14 
Q 1219 -63 1044 -63 
z
" transform="scale(0.015625)"/>
     </defs>
     <use xlink:href="#LiberationSerif-18"/>
     <use xlink:href="#LiberationSerif-3" transform="translate(50 0)"/>
     <use xlink:href="#LiberationSerif-50" transform="translate(75 0)"/>
     <use xlink:href="#LiberationSerif-35b" transform="translate(152.78125 0)"/>
     <use xlink:href="#LiberationSerif-3" transform="translate(227.09375 0)"/>
     <use xlink:href="#LiberationSerif-56" transform="translate(252.09375 0)"/>
     <use xlink:href="#LiberationSerif-4b" transform="translate(291.015625 0)"/>
     <use xlink:href="#LiberationSerif-58" transform="translate(341.015625 0)"/>
     <use xlink:href="#LiberationSerif-51" transform="translate(391.015625 0)"/>
     <use xlink:href="#LiberationSerif-57" transform="translate(441.015625 0)"/>
    </g>
   </g>
   <g id="text_11">
    <!-- FUSED+ -->
    <g style="fill: #1f6f6b" transform="translate(522.784687 30.157148) scale(0.125 -0.125)">
     <defs>
      <path id="LiberationSerif-28" d="M 184 166 
L 722 250 
L 722 3944 
L 184 4025 
L 184 4191 
L 3328 4191 
L 3328 3188 
L 3122 3188 
L 3022 3866 
Q 2672 3909 2009 3909 
L 1325 3909 
L 1325 2272 
L 2456 2272 
L 2553 2772 
L 2753 2772 
L 2753 1484 
L 2553 1484 
L 2456 1991 
L 1325 1991 
L 1325 281 
L 2150 281 
Q 2956 281 3206 331 
L 3384 1106 
L 3591 1106 
L 3531 0 
L 184 0 
L 184 166 
z
" transform="scale(0.015625)"/>
      <path id="LiberationSerif-27" d="M 3713 2125 
Q 3713 3003 3239 3456 
Q 2766 3909 1888 3909 
L 1325 3909 
L 1325 294 
Q 1700 269 2216 269 
Q 2984 269 3348 722 
Q 3713 1175 3713 2125 
z
M 2088 4191 
Q 3247 4191 3806 3673 
Q 4366 3156 4366 2119 
Q 4366 1069 3827 528 
Q 3288 -13 2216 -13 
L 722 0 
L 184 0 
L 184 166 
L 722 250 
L 722 3944 
L 184 4025 
L 184 4191 
L 2088 4191 
z
" transform="scale(0.015625)"/>
     </defs>
     <use xlink:href="#LiberationSerif-29"/>
     <use xlink:href="#LiberationSerif-38" transform="translate(55.609375 0)"/>
     <use xlink:href="#LiberationSerif-36" transform="translate(127.828125 0)"/>
     <use xlink:href="#LiberationSerif-28" transform="translate(183.4375 0)"/>
     <use xlink:href="#LiberationSerif-27" transform="translate(244.515625 0)"/>
     <use xlink:href="#LiberationSerif-e" transform="translate(316.734375 0)"/>
    </g>
   </g>
   <g id="text_12">
    <!-- P− -->
    <g style="fill: #1f6f6b" transform="translate(326.425 224.736484) scale(0.13 -0.13)">
     <use xlink:href="#LiberationSerif-33"/>
     <use xlink:href="#LiberationSerif-850" transform="translate(55.609375 0)"/>
    </g>
   </g>
   <g id="text_13">
    <!-- LM2596 -->
    <g style="fill: #2e6b3e" transform="translate(340.63 125.274775) scale(0.125 -0.125)">
     <defs>
      <path id="LiberationSerif-2f" d="M 1972 4025 
L 1325 3944 
L 1325 269 
L 2150 269 
Q 2816 269 3128 331 
L 3322 1203 
L 3525 1203 
L 3469 0 
L 184 0 
L 184 166 
L 722 250 
L 722 3944 
L 184 4025 
L 184 4191 
L 1972 4191 
L 1972 4025 
z
" transform="scale(0.015625)"/>
      <path id="LiberationSerif-1c" d="M 206 2913 
Q 206 3544 559 3891 
Q 913 4238 1556 4238 
Q 2272 4238 2605 3722 
Q 2938 3206 2938 2106 
Q 2938 1053 2509 495 
Q 2081 -63 1306 -63 
Q 797 -63 372 44 
L 372 769 
L 575 769 
L 684 319 
Q 784 272 953 234 
Q 1122 197 1294 197 
Q 1794 197 2062 636 
Q 2331 1075 2359 1928 
Q 1884 1663 1394 1663 
Q 841 1663 523 1992 
Q 206 2322 206 2913 
z
M 1563 3988 
Q 781 3988 781 2900 
Q 781 2422 968 2194 
Q 1156 1966 1550 1966 
Q 1953 1966 2363 2131 
Q 2363 3091 2173 3539 
Q 1984 3988 1563 3988 
z
" transform="scale(0.015625)"/>
      <path id="LiberationSerif-19" d="M 3009 1300 
Q 3009 647 2679 292 
Q 2350 -63 1728 -63 
Q 1022 -63 648 487 
Q 275 1038 275 2069 
Q 275 2744 472 3234 
Q 669 3725 1023 3981 
Q 1378 4238 1844 4238 
Q 2300 4238 2753 4128 
L 2753 3406 
L 2547 3406 
L 2438 3834 
Q 2334 3891 2159 3933 
Q 1984 3975 1844 3975 
Q 1388 3975 1133 3533 
Q 878 3091 853 2241 
Q 1363 2509 1875 2509 
Q 2428 2509 2718 2198 
Q 3009 1888 3009 1300 
z
M 1716 184 
Q 2094 184 2262 429 
Q 2431 675 2431 1241 
Q 2431 1753 2270 1981 
Q 2109 2209 1759 2209 
Q 1331 2209 850 2053 
Q 850 1100 1065 642 
Q 1281 184 1716 184 
z
" transform="scale(0.015625)"/>
     </defs>
     <use xlink:href="#LiberationSerif-2f"/>
     <use xlink:href="#LiberationSerif-30" transform="translate(61.078125 0)"/>
     <use xlink:href="#LiberationSerif-15" transform="translate(150 0)"/>
     <use xlink:href="#LiberationSerif-18" transform="translate(200 0)"/>
     <use xlink:href="#LiberationSerif-1c" transform="translate(250 0)"/>
     <use xlink:href="#LiberationSerif-19" transform="translate(300 0)"/>
    </g>
    <!-- 5.0 V -->
    <g style="fill: #2e6b3e" transform="translate(348.729609 136.623896) scale(0.125 -0.125)">
     <use xlink:href="#LiberationSerif-18"/>
     <use xlink:href="#LiberationSerif-11" transform="translate(50 0)"/>
     <use xlink:href="#LiberationSerif-13" transform="translate(75 0)"/>
     <use xlink:href="#LiberationSerif-3" transform="translate(125 0)"/>
     <use xlink:href="#LiberationSerif-39" transform="translate(148.1875 0)"/>
    </g>
   </g>
   <g id="text_14">
    <!-- to ESP32 -->
    <g style="fill: #2e6b3e" transform="translate(400.665 125.274775) scale(0.125 -0.125)">
     <defs>
      <path id="LiberationSerif-52" d="M 2956 1484 
Q 2956 -63 1581 -63 
Q 919 -63 581 334 
Q 244 731 244 1484 
Q 244 2228 581 2622 
Q 919 3016 1606 3016 
Q 2275 3016 2615 2630 
Q 2956 2244 2956 1484 
z
M 2394 1484 
Q 2394 2159 2197 2462 
Q 2000 2766 1581 2766 
Q 1172 2766 989 2475 
Q 806 2184 806 1484 
Q 806 775 992 479 
Q 1178 184 1581 184 
Q 1994 184 2194 490 
Q 2394 797 2394 1484 
z
" transform="scale(0.015625)"/>
     </defs>
     <use xlink:href="#LiberationSerif-57"/>
     <use xlink:href="#LiberationSerif-52" transform="translate(27.78125 0)"/>
     <use xlink:href="#LiberationSerif-3" transform="translate(77.78125 0)"/>
     <use xlink:href="#LiberationSerif-28" transform="translate(102.78125 0)"/>
     <use xlink:href="#LiberationSerif-36" transform="translate(163.859375 0)"/>
     <use xlink:href="#LiberationSerif-33" transform="translate(219.46875 0)"/>
     <use xlink:href="#LiberationSerif-16" transform="translate(275.078125 0)"/>
     <use xlink:href="#LiberationSerif-15" transform="translate(325.078125 0)"/>
    </g>
    <!-- and relays -->
    <g style="fill: #2e6b3e" transform="translate(400.665 135.550654) scale(0.125 -0.125)">
     <defs>
      <path id="LiberationSerif-5c" d="M 622 -1381 
Q 378 -1381 141 -1325 
L 141 -691 
L 288 -691 
L 391 -991 
Q 488 -1063 659 -1063 
Q 822 -1063 959 -969 
Q 1097 -875 1211 -690 
Q 1325 -506 1497 -31 
L 378 2719 
L 78 2797 
L 78 2938 
L 1441 2938 
L 1441 2797 
L 978 2713 
L 1772 659 
L 2541 2719 
L 2081 2797 
L 2081 2938 
L 3175 2938 
L 3175 2797 
L 2869 2731 
L 1722 -184 
Q 1519 -700 1369 -925 
Q 1219 -1150 1037 -1265 
Q 856 -1381 622 -1381 
z
" transform="scale(0.015625)"/>
     </defs>
     <use xlink:href="#LiberationSerif-44"/>
     <use xlink:href="#LiberationSerif-51" transform="translate(44.390625 0)"/>
     <use xlink:href="#LiberationSerif-47" transform="translate(94.390625 0)"/>
     <use xlink:href="#LiberationSerif-3" transform="translate(144.390625 0)"/>
     <use xlink:href="#LiberationSerif-55" transform="translate(169.390625 0)"/>
     <use xlink:href="#LiberationSerif-48" transform="translate(202.6875 0)"/>
     <use xlink:href="#LiberationSerif-4f" transform="translate(247.078125 0)"/>
     <use xlink:href="#LiberationSerif-44" transform="translate(274.859375 0)"/>
     <use xlink:href="#LiberationSerif-5c" transform="translate(319.25 0)"/>
     <use xlink:href="#LiberationSerif-56" transform="translate(369.25 0)"/>
    </g>
   </g>
   <g id="text_15">
    <!-- INA226 -->
    <g style="fill: #002060" transform="translate(471.621602 112.957148) scale(0.125 -0.125)">
     <defs>
      <path id="LiberationSerif-2c" d="M 1369 250 
L 1906 166 
L 1906 0 
L 231 0 
L 231 166 
L 769 250 
L 769 3944 
L 231 4025 
L 231 4191 
L 1906 4191 
L 1906 4025 
L 1369 3944 
L 1369 250 
z
" transform="scale(0.015625)"/>
     </defs>
     <use xlink:href="#LiberationSerif-2c"/>
     <use xlink:href="#LiberationSerif-31" transform="translate(33.296875 0)"/>
     <use xlink:href="#LiberationSerif-24" transform="translate(105.515625 0)"/>
     <use xlink:href="#LiberationSerif-15" transform="translate(177.734375 0)"/>
     <use xlink:href="#LiberationSerif-15" transform="translate(227.734375 0)"/>
     <use xlink:href="#LiberationSerif-19" transform="translate(277.734375 0)"/>
    </g>
   </g>
   <g id="text_16">
    <!-- LOAD -->
    <g transform="translate(561.146602 91.357148) scale(0.125 -0.125)">
     <use xlink:href="#LiberationSerif-2f"/>
     <use xlink:href="#LiberationSerif-32" transform="translate(61.078125 0)"/>
     <use xlink:href="#LiberationSerif-24" transform="translate(133.296875 0)"/>
     <use xlink:href="#LiberationSerif-27" transform="translate(205.515625 0)"/>
    </g>
   </g>
   <g id="patch_7">
    <path d="M 574.905 140.92 
C 576.050677 140.92 577.149585 140.464818 577.959701 139.654701 
C 578.769818 138.844585 579.225 137.745677 579.225 136.6 
C 579.225 135.454323 578.769818 134.355415 577.959701 133.545299 
C 577.149585 132.735182 576.050677 132.28 574.905 132.28 
C 573.759323 132.28 572.660415 132.735182 571.850299 133.545299 
C 571.040182 134.355415 570.585 135.454323 570.585 136.6 
C 570.585 137.745677 571.040182 138.844585 571.850299 139.654701 
C 572.660415 140.464818 573.759323 140.92 574.905 140.92 
z
" clip-path="url(#p8c715bc26d)" style="fill: #ffffff; stroke: #b26b00; stroke-width: 2; stroke-linejoin: miter"/>
   </g>
   <g id="patch_8">
    <path d="M 574.905 168.28 
C 576.050677 168.28 577.149585 167.824818 577.959701 167.014701 
C 578.769818 166.204585 579.225 165.105677 579.225 163.96 
C 579.225 162.814323 578.769818 161.715415 577.959701 160.905299 
C 577.149585 160.095182 576.050677 159.64 574.905 159.64 
C 573.759323 159.64 572.660415 160.095182 571.850299 160.905299 
C 571.040182 161.715415 570.585 162.814323 570.585 163.96 
C 570.585 165.105677 571.040182 166.204585 571.850299 167.014701 
C 572.660415 167.824818 573.759323 168.28 574.905 168.28 
z
" clip-path="url(#p8c715bc26d)" style="fill: #ffffff; stroke: #b26b00; stroke-width: 2; stroke-linejoin: miter"/>
   </g>
   <g id="text_17">
    <!-- K_LOAD -->
    <g style="fill: #b26b00" transform="translate(606.585 151.530635) scale(0.125 -0.125)">
     <defs>
      <path id="LiberationSerif-2e" d="M 4228 4191 
L 4228 4025 
L 3744 3944 
L 2313 2544 
L 4103 250 
L 4556 166 
L 4556 0 
L 3531 0 
L 1891 2119 
L 1325 1666 
L 1325 250 
L 1925 166 
L 1925 0 
L 184 0 
L 184 166 
L 722 250 
L 722 3944 
L 184 4025 
L 184 4191 
L 1863 4191 
L 1863 4025 
L 1325 3944 
L 1325 1969 
L 3331 3944 
L 2916 4025 
L 2916 4191 
L 4228 4191 
z
" transform="scale(0.015625)"/>
      <path id="LiberationSerif-42" d="M -50 -825 
L -50 -506 
L 3250 -506 
L 3250 -825 
L -50 -825 
z
" transform="scale(0.015625)"/>
     </defs>
     <use xlink:href="#LiberationSerif-2e"/>
     <use xlink:href="#LiberationSerif-42" transform="translate(72.21875 0)"/>
     <use xlink:href="#LiberationSerif-2f" transform="translate(122.21875 0)"/>
     <use xlink:href="#LiberationSerif-32" transform="translate(183.296875 0)"/>
     <use xlink:href="#LiberationSerif-24" transform="translate(255.515625 0)"/>
     <use xlink:href="#LiberationSerif-27" transform="translate(327.734375 0)"/>
    </g>
    <!-- GPIO25 -->
    <g style="fill: #b26b00" transform="translate(606.585 163.639521) scale(0.125 -0.125)">
     <defs>
      <path id="LiberationSerif-2a" d="M 4013 219 
Q 3650 100 3259 18 
Q 2869 -63 2419 -63 
Q 1400 -63 831 487 
Q 263 1038 263 2047 
Q 263 3147 814 3692 
Q 1366 4238 2431 4238 
Q 3194 4238 3903 4050 
L 3903 3150 
L 3694 3150 
L 3609 3669 
Q 3394 3822 3092 3905 
Q 2791 3988 2456 3988 
Q 1656 3988 1286 3511 
Q 916 3034 916 2053 
Q 916 1131 1297 654 
Q 1678 178 2425 178 
Q 2688 178 2975 240 
Q 3263 303 3413 391 
L 3413 1581 
L 2875 1663 
L 2875 1831 
L 4422 1831 
L 4422 1663 
L 4013 1581 
L 4013 219 
z
" transform="scale(0.015625)"/>
     </defs>
     <use xlink:href="#LiberationSerif-2a"/>
     <use xlink:href="#LiberationSerif-33" transform="translate(72.21875 0)"/>
     <use xlink:href="#LiberationSerif-2c" transform="translate(127.828125 0)"/>
     <use xlink:href="#LiberationSerif-32" transform="translate(161.125 0)"/>
     <use xlink:href="#LiberationSerif-15" transform="translate(233.34375 0)"/>
     <use xlink:href="#LiberationSerif-18" transform="translate(283.34375 0)"/>
    </g>
   </g>
   <g id="text_18">
    <!-- CHARGER -->
    <g transform="translate(649.439766 85.674775) scale(0.125 -0.125)">
     <defs>
      <path id="LiberationSerif-35" d="M 1325 1838 
L 1325 250 
L 1959 166 
L 1959 0 
L 225 0 
L 225 166 
L 722 250 
L 722 3944 
L 184 4025 
L 184 4191 
L 1994 4191 
Q 2781 4191 3156 3925 
Q 3531 3659 3531 3072 
Q 3531 2653 3303 2348 
Q 3075 2044 2672 1925 
L 3806 250 
L 4259 166 
L 4259 0 
L 3256 0 
L 2078 1838 
L 1325 1838 
z
M 2909 3028 
Q 2909 3506 2676 3707 
Q 2444 3909 1859 3909 
L 1325 3909 
L 1325 2119 
L 1878 2119 
Q 2438 2119 2673 2326 
Q 2909 2534 2909 3028 
z
" transform="scale(0.015625)"/>
     </defs>
     <use xlink:href="#LiberationSerif-26"/>
     <use xlink:href="#LiberationSerif-2b" transform="translate(66.703125 0)"/>
     <use xlink:href="#LiberationSerif-24" transform="translate(138.921875 0)"/>
     <use xlink:href="#LiberationSerif-35" transform="translate(211.140625 0)"/>
     <use xlink:href="#LiberationSerif-2a" transform="translate(277.84375 0)"/>
     <use xlink:href="#LiberationSerif-28" transform="translate(350.0625 0)"/>
     <use xlink:href="#LiberationSerif-35" transform="translate(411.140625 0)"/>
    </g>
    <!-- 16.8 V -->
    <g transform="translate(662.404609 97.023896) scale(0.125 -0.125)">
     <defs>
      <path id="LiberationSerif-1b" d="M 2828 3169 
Q 2828 2825 2661 2586 
Q 2494 2347 2209 2222 
Q 2566 2091 2761 1811 
Q 2956 1531 2956 1131 
Q 2956 538 2622 237 
Q 2288 -63 1581 -63 
Q 244 -63 244 1131 
Q 244 1547 444 1820 
Q 644 2094 984 2222 
Q 713 2347 542 2584 
Q 372 2822 372 3169 
Q 372 3688 689 3972 
Q 1006 4256 1606 4256 
Q 2188 4256 2508 3973 
Q 2828 3691 2828 3169 
z
M 2394 1131 
Q 2394 1631 2198 1856 
Q 2003 2081 1581 2081 
Q 1169 2081 987 1867 
Q 806 1653 806 1131 
Q 806 603 990 393 
Q 1175 184 1581 184 
Q 1997 184 2195 401 
Q 2394 619 2394 1131 
z
M 2266 3169 
Q 2266 3600 2097 3803 
Q 1928 4006 1588 4006 
Q 1256 4006 1095 3809 
Q 934 3613 934 3169 
Q 934 2734 1090 2545 
Q 1247 2356 1588 2356 
Q 1938 2356 2102 2548 
Q 2266 2741 2266 3169 
z
" transform="scale(0.015625)"/>
     </defs>
     <use xlink:href="#LiberationSerif-14"/>
     <use xlink:href="#LiberationSerif-19" transform="translate(50 0)"/>
     <use xlink:href="#LiberationSerif-11" transform="translate(100 0)"/>
     <use xlink:href="#LiberationSerif-1b" transform="translate(125 0)"/>
     <use xlink:href="#LiberationSerif-3" transform="translate(175 0)"/>
     <use xlink:href="#LiberationSerif-39" transform="translate(198.1875 0)"/>
    </g>
   </g>
   <g id="patch_9">
    <path d="M 675.705 140.92 
C 676.850677 140.92 677.949585 140.464818 678.759701 139.654701 
C 679.569818 138.844585 680.025 137.745677 680.025 136.6 
C 680.025 135.454323 679.569818 134.355415 678.759701 133.545299 
C 677.949585 132.735182 676.850677 132.28 675.705 132.28 
C 674.559323 132.28 673.460415 132.735182 672.650299 133.545299 
C 671.840182 134.355415 671.385 135.454323 671.385 136.6 
C 671.385 137.745677 671.840182 138.844585 672.650299 139.654701 
C 673.460415 140.464818 674.559323 140.92 675.705 140.92 
z
" clip-path="url(#p8c715bc26d)" style="fill: #ffffff; stroke: #b26b00; stroke-width: 2; stroke-linejoin: miter"/>
   </g>
   <g id="patch_10">
    <path d="M 675.705 168.28 
C 676.850677 168.28 677.949585 167.824818 678.759701 167.014701 
C 679.569818 166.204585 680.025 165.105677 680.025 163.96 
C 680.025 162.814323 679.569818 161.715415 678.759701 160.905299 
C 677.949585 160.095182 676.850677 159.64 675.705 159.64 
C 674.559323 159.64 673.460415 160.095182 672.650299 160.905299 
C 671.840182 161.715415 671.385 162.814323 671.385 163.96 
C 671.385 165.105677 671.840182 166.204585 672.650299 167.014701 
C 673.460415 167.824818 674.559323 168.28 675.705 168.28 
z
" clip-path="url(#p8c715bc26d)" style="fill: #ffffff; stroke: #b26b00; stroke-width: 2; stroke-linejoin: miter"/>
   </g>
   <g id="text_19">
    <!-- K_CHARGE -->
    <g style="fill: #b26b00" transform="translate(707.385 151.530635) scale(0.125 -0.125)">
     <use xlink:href="#LiberationSerif-2e"/>
     <use xlink:href="#LiberationSerif-42" transform="translate(72.21875 0)"/>
     <use xlink:href="#LiberationSerif-26" transform="translate(122.21875 0)"/>
     <use xlink:href="#LiberationSerif-2b" transform="translate(188.921875 0)"/>
     <use xlink:href="#LiberationSerif-24" transform="translate(261.140625 0)"/>
     <use xlink:href="#LiberationSerif-35" transform="translate(333.359375 0)"/>
     <use xlink:href="#LiberationSerif-2a" transform="translate(400.0625 0)"/>
     <use xlink:href="#LiberationSerif-28" transform="translate(472.28125 0)"/>
    </g>
    <!-- GPIO26 -->
    <g style="fill: #b26b00" transform="translate(707.385 163.639521) scale(0.125 -0.125)">
     <use xlink:href="#LiberationSerif-2a"/>
     <use xlink:href="#LiberationSerif-33" transform="translate(72.21875 0)"/>
     <use xlink:href="#LiberationSerif-2c" transform="translate(127.828125 0)"/>
     <use xlink:href="#LiberationSerif-32" transform="translate(161.125 0)"/>
     <use xlink:href="#LiberationSerif-15" transform="translate(233.34375 0)"/>
     <use xlink:href="#LiberationSerif-19" transform="translate(283.34375 0)"/>
    </g>
   </g>
   <g id="text_20">
    <!-- V -->
    <g style="fill: #002060" transform="translate(26.249687 88.157812) scale(0.14 -0.14)">
     <use xlink:href="#LiberationSerif-39"/>
    </g>
   </g>
   <g id="text_21">
    <!-- ADS1115 -->
    <g style="fill: #002060" transform="translate(10.364961 44.274775) scale(0.125 -0.125)">
     <use xlink:href="#LiberationSerif-24"/>
     <use xlink:href="#LiberationSerif-27" transform="translate(72.21875 0)"/>
     <use xlink:href="#LiberationSerif-36" transform="translate(144.4375 0)"/>
     <use xlink:href="#LiberationSerif-14" transform="translate(200.046875 0)"/>
     <use xlink:href="#LiberationSerif-14" transform="translate(246.34375 0)"/>
     <use xlink:href="#LiberationSerif-14" transform="translate(292.640625 0)"/>
     <use xlink:href="#LiberationSerif-18" transform="translate(342.640625 0)"/>
    </g>
    <!-- 4 cell taps -->
    <g style="fill: #002060" transform="translate(9.565156 54.568232) scale(0.125 -0.125)">
     <use xlink:href="#LiberationSerif-17"/>
     <use xlink:href="#LiberationSerif-3" transform="translate(50 0)"/>
     <use xlink:href="#LiberationSerif-46" transform="translate(75 0)"/>
     <use xlink:href="#LiberationSerif-48" transform="translate(119.390625 0)"/>
     <use xlink:href="#LiberationSerif-4f" transform="translate(163.78125 0)"/>
     <use xlink:href="#LiberationSerif-4f" transform="translate(191.5625 0)"/>
     <use xlink:href="#LiberationSerif-3" transform="translate(219.34375 0)"/>
     <use xlink:href="#LiberationSerif-57" transform="translate(244.34375 0)"/>
     <use xlink:href="#LiberationSerif-44" transform="translate(272.125 0)"/>
     <use xlink:href="#LiberationSerif-53" transform="translate(316.515625 0)"/>
     <use xlink:href="#LiberationSerif-56" transform="translate(366.515625 0)"/>
    </g>
   </g>
   <g id="text_22">
    <!-- 4 × NTC -->
    <g style="fill: #b26b00" transform="translate(12.630586 206.274775) scale(0.125 -0.125)">
     <defs>
      <path id="LiberationSerif-99" d="M 1806 1900 
L 728 825 
L 506 1050 
L 1581 2131 
L 506 3200 
L 738 3431 
L 1806 2356 
L 2888 3431 
L 3109 3206 
L 2034 2131 
L 3109 1050 
L 2888 825 
L 1806 1900 
z
" transform="scale(0.015625)"/>
      <path id="LiberationSerif-37" d="M 984 0 
L 984 166 
L 1650 250 
L 1650 3922 
L 1491 3922 
Q 700 3922 409 3859 
L 325 3206 
L 116 3206 
L 116 4191 
L 3803 4191 
L 3803 3206 
L 3591 3206 
L 3506 3859 
Q 3413 3881 3097 3898 
Q 2781 3916 2406 3916 
L 2253 3916 
L 2253 250 
L 2919 166 
L 2919 0 
L 984 0 
z
" transform="scale(0.015625)"/>
     </defs>
     <use xlink:href="#LiberationSerif-17"/>
     <use xlink:href="#LiberationSerif-3" transform="translate(50 0)"/>
     <use xlink:href="#LiberationSerif-99" transform="translate(75 0)"/>
     <use xlink:href="#LiberationSerif-3" transform="translate(131.390625 0)"/>
     <use xlink:href="#LiberationSerif-31" transform="translate(156.390625 0)"/>
     <use xlink:href="#LiberationSerif-37" transform="translate(228.609375 0)"/>
     <use xlink:href="#LiberationSerif-26" transform="translate(289.6875 0)"/>
    </g>
    <!-- on the cells -->
    <g style="fill: #b26b00" transform="translate(6.440156 217.837764) scale(0.125 -0.125)">
     <use xlink:href="#LiberationSerif-52"/>
     <use xlink:href="#LiberationSerif-51" transform="translate(50 0)"/>
     <use xlink:href="#LiberationSerif-3" transform="translate(100 0)"/>
     <use xlink:href="#LiberationSerif-57" transform="translate(125 0)"/>
     <use xlink:href="#LiberationSerif-4b" transform="translate(152.78125 0)"/>
     <use xlink:href="#LiberationSerif-48" transform="translate(202.78125 0)"/>
     <use xlink:href="#LiberationSerif-3" transform="translate(247.171875 0)"/>
     <use xlink:href="#LiberationSerif-46" transform="translate(272.171875 0)"/>
     <use xlink:href="#LiberationSerif-48" transform="translate(316.5625 0)"/>
     <use xlink:href="#LiberationSerif-4f" transform="translate(360.953125 0)"/>
     <use xlink:href="#LiberationSerif-4f" transform="translate(388.734375 0)"/>
     <use xlink:href="#LiberationSerif-56" transform="translate(416.515625 0)"/>
    </g>
   </g>
   <g id="patch_11">
    <path d="M 121.305 215.98 
C 122.021048 215.98 122.707866 215.695511 123.214188 215.189188 
C 123.720511 214.682866 124.005 213.996048 124.005 213.28 
C 124.005 212.563952 123.720511 211.877134 123.214188 211.370812 
C 122.707866 210.864489 122.021048 210.58 121.305 210.58 
C 120.588952 210.58 119.902134 210.864489 119.395812 211.370812 
C 118.889489 211.877134 118.605 212.563952 118.605 213.28 
C 118.605 213.996048 118.889489 214.682866 119.395812 215.189188 
C 119.902134 215.695511 120.588952 215.98 121.305 215.98 
z
" clip-path="url(#p8c715bc26d)" style="fill: #1f6f6b; stroke: #1f6f6b; stroke-width: 2; stroke-linejoin: miter"/>
   </g>
   <g id="patch_12">
    <path d="M 121.305 172.78 
C 122.021048 172.78 122.707866 172.495511 123.214188 171.989188 
C 123.720511 171.482866 124.005 170.796048 124.005 170.08 
C 124.005 169.363952 123.720511 168.677134 123.214188 168.170812 
C 122.707866 167.664489 122.021048 167.38 121.305 167.38 
C 120.588952 167.38 119.902134 167.664489 119.395812 168.170812 
C 118.889489 168.677134 118.605 169.363952 118.605 170.08 
C 118.605 170.796048 118.889489 171.482866 119.395812 171.989188 
C 119.902134 172.495511 120.588952 172.78 121.305 172.78 
z
" clip-path="url(#p8c715bc26d)" style="fill: #1f6f6b; stroke: #1f6f6b; stroke-width: 2; stroke-linejoin: miter"/>
   </g>
   <g id="patch_13">
    <path d="M 121.305 129.58 
C 122.021048 129.58 122.707866 129.295511 123.214188 128.789188 
C 123.720511 128.282866 124.005 127.596048 124.005 126.88 
C 124.005 126.163952 123.720511 125.477134 123.214188 124.970812 
C 122.707866 124.464489 122.021048 124.18 121.305 124.18 
C 120.588952 124.18 119.902134 124.464489 119.395812 124.970812 
C 118.889489 125.477134 118.605 126.163952 118.605 126.88 
C 118.605 127.596048 118.889489 128.282866 119.395812 128.789188 
C 119.902134 129.295511 120.588952 129.58 121.305 129.58 
z
" clip-path="url(#p8c715bc26d)" style="fill: #1f6f6b; stroke: #1f6f6b; stroke-width: 2; stroke-linejoin: miter"/>
   </g>
   <g id="patch_14">
    <path d="M 121.305 86.38 
C 122.021048 86.38 122.707866 86.095511 123.214188 85.589188 
C 123.720511 85.082866 124.005 84.396048 124.005 83.68 
C 124.005 82.963952 123.720511 82.277134 123.214188 81.770812 
C 122.707866 81.264489 122.021048 80.98 121.305 80.98 
C 120.588952 80.98 119.902134 81.264489 119.395812 81.770812 
C 118.889489 82.277134 118.605 82.963952 118.605 83.68 
C 118.605 84.396048 118.889489 85.082866 119.395812 85.589188 
C 119.902134 86.095511 120.588952 86.38 121.305 86.38 
z
" clip-path="url(#p8c715bc26d)" style="fill: #1f6f6b; stroke: #1f6f6b; stroke-width: 2; stroke-linejoin: miter"/>
   </g>
   <g id="patch_15">
    <path d="M 121.305 43.18 
C 122.021048 43.18 122.707866 42.895511 123.214188 42.389188 
C 123.720511 41.882866 124.005 41.196048 124.005 40.48 
C 124.005 39.763952 123.720511 39.077134 123.214188 38.570812 
C 122.707866 38.064489 122.021048 37.78 121.305 37.78 
C 120.588952 37.78 119.902134 38.064489 119.395812 38.570812 
C 118.889489 39.077134 118.605 39.763952 118.605 40.48 
C 118.605 41.196048 118.889489 41.882866 119.395812 42.389188 
C 119.902134 42.895511 120.588952 43.18 121.305 43.18 
z
" clip-path="url(#p8c715bc26d)" style="fill: #1f6f6b; stroke: #1f6f6b; stroke-width: 2; stroke-linejoin: miter"/>
   </g>
   <g id="patch_16">
    <path d="M 358.905 43.18 
C 359.621048 43.18 360.307866 42.895511 360.814188 42.389188 
C 361.320511 41.882866 361.605 41.196048 361.605 40.48 
C 361.605 39.763952 361.320511 39.077134 360.814188 38.570812 
C 360.307866 38.064489 359.621048 37.78 358.905 37.78 
C 358.188952 37.78 357.502134 38.064489 356.995812 38.570812 
C 356.489489 39.077134 356.205 39.763952 356.205 40.48 
C 356.205 41.196048 356.489489 41.882866 356.995812 42.389188 
C 357.502134 42.895511 358.188952 43.18 358.905 43.18 
z
" clip-path="url(#p8c715bc26d)" style="stroke: #000000; stroke-width: 2; stroke-linejoin: miter"/>
   </g>
   <g id="patch_17">
    <path d="M 542.505 43.18 
C 543.221048 43.18 543.907866 42.895511 544.414188 42.389188 
C 544.920511 41.882866 545.205 41.196048 545.205 40.48 
C 545.205 39.763952 544.920511 39.077134 544.414188 38.570812 
C 543.907866 38.064489 543.221048 37.78 542.505 37.78 
C 541.788952 37.78 541.102134 38.064489 540.595812 38.570812 
C 540.089489 39.077134 539.805 39.763952 539.805 40.48 
C 539.805 41.196048 540.089489 41.882866 540.595812 42.389188 
C 541.102134 42.895511 541.788952 43.18 542.505 43.18 
z
" clip-path="url(#p8c715bc26d)" style="stroke: #000000; stroke-width: 2; stroke-linejoin: miter"/>
   </g>
   <g id="patch_18">
    <path d="M 574.905 43.18 
C 575.621048 43.18 576.307866 42.895511 576.814188 42.389188 
C 577.320511 41.882866 577.605 41.196048 577.605 40.48 
C 577.605 39.763952 577.320511 39.077134 576.814188 38.570812 
C 576.307866 38.064489 575.621048 37.78 574.905 37.78 
C 574.188952 37.78 573.502134 38.064489 572.995812 38.570812 
C 572.489489 39.077134 572.205 39.763952 572.205 40.48 
C 572.205 41.196048 572.489489 41.882866 572.995812 42.389188 
C 573.502134 42.895511 574.188952 43.18 574.905 43.18 
z
" clip-path="url(#p8c715bc26d)" style="stroke: #000000; stroke-width: 2; stroke-linejoin: miter"/>
   </g>
   <g id="patch_19">
    <path d="M 358.905 215.98 
C 359.621048 215.98 360.307866 215.695511 360.814188 215.189188 
C 361.320511 214.682866 361.605 213.996048 361.605 213.28 
C 361.605 212.563952 361.320511 211.877134 360.814188 211.370812 
C 360.307866 210.864489 359.621048 210.58 358.905 210.58 
C 358.188952 210.58 357.502134 210.864489 356.995812 211.370812 
C 356.489489 211.877134 356.205 212.563952 356.205 213.28 
C 356.205 213.996048 356.489489 214.682866 356.995812 215.189188 
C 357.502134 215.695511 358.188952 215.98 358.905 215.98 
z
" clip-path="url(#p8c715bc26d)" style="stroke: #000000; stroke-width: 2; stroke-linejoin: miter"/>
   </g>
   <g id="patch_20">
    <path d="M 574.905 215.98 
C 575.621048 215.98 576.307866 215.695511 576.814188 215.189188 
C 577.320511 214.682866 577.605 213.996048 577.605 213.28 
C 577.605 212.563952 577.320511 211.877134 576.814188 211.370812 
C 576.307866 210.864489 575.621048 210.58 574.905 210.58 
C 574.188952 210.58 573.502134 210.864489 572.995812 211.370812 
C 572.489489 211.877134 572.205 212.563952 572.205 213.28 
C 572.205 213.996048 572.489489 214.682866 572.995812 215.189188 
C 573.502134 215.695511 574.188952 215.98 574.905 215.98 
z
" clip-path="url(#p8c715bc26d)" style="stroke: #000000; stroke-width: 2; stroke-linejoin: miter"/>
   </g>
  </g>
 </g>
 <defs>
  <clipPath id="p8c715bc26d">
   <rect x="0" y="0" width="779.715" height="234.16"/>
  </clipPath>
 </defs>
</svg>
